<svg width="1024" height="1024" viewBox="0 0 1024 1024" xmlns="http://www.w3.org/2000/svg" xmlns:xlink="http://www.w3.org/1999/xlink"><title>aiohttp JSON API icon</title><desc>Created using Figma</desc><use xlink:href="#a" fill="#2C5BB4"/><use xlink:href="#b" fill="#2C5BB4"/><g><use xlink:href="#c" transform="translate(112.18 439)" fill="#2C5BB4"/></g><defs><path id="a" d="M359.119 538.531c.95.541 2.235.86 4.147.86 3.469 0 4.874-1.051 5.959-2.567 1.6-2.235 3.478-7.175 3.478-16.558v-.804l-13.584 19.069z"/><path id="b" fill-rule="evenodd" d="M150.206 150.195A512.81 512.81 0 0 0 0 511.986a512.825 512.825 0 0 0 150.201 361.806A512.84 512.84 0 0 0 512.007 1024a512.826 512.826 0 0 0 361.797-150.213C969.774 777.813 1023.78 647.71 1024 511.986a512.816 512.816 0 0 0-150.202-361.787A512.827 512.827 0 0 0 512.007 0a512.826 512.826 0 0 0-361.801 150.195zM802.579 880.51a467.131 467.131 0 0 1-290.572 100.986 466.571 466.571 0 0 1-253.653-74.612l-2.228-57.994a31.89 31.89 0 0 0 24.295-30.967 31.875 31.875 0 0 0-17.039-28.209l31.919-110.553c2.808.452 5.648.679 8.492.679a53.077 53.077 0 0 0 46.037-26.592l148.194 63.715a31.998 31.998 0 0 0-.883 7.487 31.865 31.865 0 0 0 31.851 31.864 31.876 31.876 0 0 0 31.933-31.755v-.503l105.58-27a53.135 53.135 0 0 0 49.516 33.862c5.536 0 11.038-.867 16.306-2.568l30.791 66.704a31.846 31.846 0 0 0-11.206 11.586 31.844 31.844 0 0 0-4.094 15.59 31.876 31.876 0 0 0 41.825 30.274l12.936 28.006zm-559.186-31.076l1.875 48.74A470.838 470.838 0 0 1 51.255 602.619l199.422 24.16a53.125 53.125 0 0 0 32.367 48.917l-31.919 110.526a28.993 28.993 0 0 0-2.582-.109 31.863 31.863 0 0 0-31.851 31.864 31.88 31.88 0 0 0 26.701 31.457zm686.25-123.163a472.88 472.88 0 0 1-116.859 145.95l-12.121-26.144a31.796 31.796 0 0 0 10.87-23.915 31.862 31.862 0 0 0-31.864-31.85 32.17 32.17 0 0 0-4.525.326l-31.253-67.751a53.267 53.267 0 0 0 22.543-28.671l163.209 32.055zm51.866-214.285a466.518 466.518 0 0 1-45.942 202.45l-166.619-32.802c.099-1.304.149-2.618.149-3.941a53.115 53.115 0 0 0-53.144-53.075 52.997 52.997 0 0 0-20.885 4.267l-43.475-74.603-4.765 17.2 37.206 63.844a53.003 53.003 0 0 0-15.618 18.725 53 53 0 0 0-5.579 23.737c.001 2.304.151 4.605.448 6.89l-105.173 26.89.013-.081a31.87 31.87 0 0 0-29.16-18.955 31.804 31.804 0 0 0-25.546 12.827l-148.615-63.864a53.16 53.16 0 0 0 2.092-14.784 52.99 52.99 0 0 0-17.189-39.12l4.45-6.249a51.506 51.506 0 0 1-11.63-5.481l-3.12 4.378a52.877 52.877 0 0 0-25.573-6.549 51.664 51.664 0 0 0-2.553.06c-8.093 5.9-18.028 9.171-28.84 10.177a53.143 53.143 0 0 0-20.242 30.188L48.877 589.439a470.143 470.143 0 0 1-6.387-77.453 469.902 469.902 0 0 1 233.814-405.89l157.951 155.421a105.805 105.805 0 0 0-26.307 69.978 105.996 105.996 0 0 0 39.677 82.793l-19.218 26.978h15.503l14.015-19.681a105.73 105.73 0 0 0 56.188 16.129 105.746 105.746 0 0 0 48.075-11.469l53.124 91.158 5.118-16.596-47.235-81.057a106.123 106.123 0 0 0 47.151-88.322 106.354 106.354 0 0 0-3.845-28.413l134.089-45.711a31.873 31.873 0 0 0 29.106 18.874 31.86 31.86 0 0 0 22.531-9.333 31.862 31.862 0 0 0 9.334-22.531 31.946 31.946 0 0 0-.884-7.487l64.504-21.985a467.206 467.206 0 0 1 106.328 297.144zM747.75 244.817l-135.462 46.2.082-.082a106.264 106.264 0 0 0-98.298-65.766 105.807 105.807 0 0 0-70.958 27.176L287.8 99.56a466.421 466.421 0 0 1 224.207-57.07A468.6 468.6 0 0 1 866.28 204.42l-61.147 20.844a31.815 31.815 0 0 0-25.519-12.773 31.876 31.876 0 0 0-31.864 31.864v.462z"/><path id="c" fill-rule="evenodd" d="M100.242 2.266v40.48c1.025-12.04 6.238-22.664 15.25-30.372C125.371 3.924 138.588 0 152.882 0c13.906 0 26.801 3.945 36.575 12.096 5.544 4.625 9.778 10.36 12.525 16.881 1.996-3.942 4.409-7.6 7.259-10.921C219.607 5.979 234.367 0 251.085 0c16.719 0 31.479 5.979 41.845 18.056a53.226 53.226 0 0 1 4.312 5.78V2.267h39.618l21.319 40.287V2.266h44.563V143h-39.549l-21.389-40.502V143h-44.562v-21.571a53.277 53.277 0 0 1-4.312 5.781c-10.366 12.077-25.126 18.056-41.845 18.056-16.718 0-31.478-5.979-41.844-18.056a53.993 53.993 0 0 1-6.26-9.036c-2.644 5.498-6.398 10.402-11.239 14.5-10.26 8.685-24.01 12.592-38.938 12.592-14.602 0-28.081-3.72-38.334-11.95-7.991-6.415-13.273-14.986-15.63-24.871-1.947 8.855-5.971 16.813-12.343 23.165-9.454 9.425-22.414 13.656-36.505 13.656-13.652 0-26.246-4.242-35.569-12.927C5.011 123.571.107 111.352.054 97.804L0 83.75h45.898l.43 13.556c.05 1.546.522 1.985.603 2.06l.003.002c.117.109.822.71 2.823.71 1.403 0 2.153-.215 2.45-.33.14-.053.2-.092.21-.099.009-.01.05-.06.114-.173.073-.131.187-.366.306-.74.246-.767.498-2.06.498-4.033V46.516H13.492V2.266h86.75zm0 81.797h19.609c-3.089-1.98-5.918-4.263-8.428-6.895-6.843-7.175-10.364-15.934-11.181-25.496v32.39zm42.855 9.066l.355 3.53c.17 1.686.717 2.319 1.39 2.811.983.72 3.434 1.858 8.275 1.858 4.468 0 6.59-1.129 7.262-1.653.298-.233.368-.376.389-.42.021-.043.133-.28.145-.86-.37-.245-1.014-.613-2.059-1.055-1.549-.654-3.712-1.356-6.687-2.058l-9.07-2.153zm51.41-28.403v-.882c0-1.175.02-2.342.06-3.5h-5.754a44.843 44.843 0 0 1 5.694 4.383zm-34.572-14.94l-.204-2.07c-.174-1.767-.727-2.251-1.009-2.475-.481-.381-2.061-1.303-5.683-1.303-3.912 0-5.61.858-6.049 1.143-.015.104-.03.261-.03.481 0 .079.002.149.004.211.302.206.844.527 1.741.916 1.372.593 3.331 1.24 6.075 1.873l.043.01 5.112 1.213zm-12.909-4.87l-.005.015a.112.112 0 0 1 .005-.015zm180.778 3.459h1.25L371.632 129h17.11V16.266h-16.563v80.312h-1.25l-42.5-80.312h-17.187V129h16.562V48.375zM86.242 16.265v78.75c0 22.813-13.594 36.251-36.25 36.251-16.072 0-28.108-7.379-33.227-19.516-1.75-4.146-2.69-8.848-2.71-14h18.28c.313 9.844 7.344 16.328 17.422 16.328 11.25 0 17.578-6.875 17.578-19.375V32.516H27.492v-16.25h58.75zm43.281 81.797c1.094 10.86 9.844 17.266 23.594 17.266 13.281 0 21.797-6.64 21.797-17.031 0-8.516-5.625-13.36-19.532-16.64l-10.859-2.579c-20.625-4.922-30.469-15.312-30.469-31.875C114.054 26.97 129.21 14 152.882 14c16.652 0 29.379 6.921 35.234 18.344 2.112 4.119 3.33 8.823 3.516 14h-17.968c-1.016-10.313-8.75-16.407-20.625-16.407-12.5 0-20.079 5.86-20.079 15.625 0 8.672 5.469 13.594 18.672 16.641l10.86 2.578c21.797 5.078 31.172 14.766 31.172 31.875 0 21.406-15.625 34.61-40.86 34.61-18.46 0-31.896-7.033-37.892-19.204-2.023-4.106-3.199-8.796-3.436-14h18.047zm115.603-.238c1.085 1.516 2.49 2.567 5.959 2.567 3.47 0 4.875-1.051 5.96-2.567 1.6-2.235 3.478-7.174 3.478-16.558V64c0-9.384-1.878-14.323-3.478-16.558-1.085-1.516-2.49-2.567-5.96-2.567-3.469 0-4.874 1.05-5.959 2.567-1.6 2.235-3.478 7.174-3.478 16.558v17.266c0 9.383 1.878 14.323 3.478 16.558zm291.819-81.558h21.719L593.429 129h-20.234l-8.125-29.61h-35.781L521.085 129h-18.906l34.766-112.734zm10.703 19.765h-.781l-13.438 48.36h27.5l-13.281-48.36zm-7.711 77.36L531.734 143h-48.523L526.612 2.266h42.385l27.385 88.803V2.266h53.766c14.515 0 27.731 4.7 37.358 14.283 5.336 5.313 9.172 11.731 11.533 18.867V2.266h93.156v44.25H769.07V98.75h23.125V143h-93.156V98.75h23.125V46.516h-20.7c.279 2.396.418 4.843.418 7.328 0 14.548-4.897 27.733-14.709 37.274-9.773 9.502-23.139 14.148-37.806 14.148h-6.078V143h-80.77l-8.125-29.609h-14.457zm70.445-97.125h39.766c22.969 0 37.734 14.687 37.734 37.578 0 22.734-15.078 37.422-38.515 37.422h-20.078V129h-18.907V16.266zm35.078 29.78h-2.171v15.438h2.171c5.545 0 7.397-1.356 7.819-1.749.245-.228 1.463-1.421 1.463-5.97 0-4.548-1.218-5.741-1.463-5.97-.422-.392-2.274-1.748-7.819-1.748zM713.039 129v-16.25h23.125V32.516h-23.125v-16.25h65.156v16.25H755.07v80.234h23.125V129h-65.156zM293.664 63.844v17.578c0 31.328-16.094 49.844-42.579 49.844-26.484 0-42.578-18.516-42.578-49.844V63.844c0-31.328 16.094-49.844 42.578-49.844 26.485 0 42.579 18.516 42.579 49.844zm-66.016 17.422c0 21.718 8.437 33.125 23.437 33.125 15 0 23.438-11.407 23.438-33.125V64c0-21.719-8.438-33.125-23.438-33.125-15 0-23.437 11.406-23.437 33.125v17.266zm401.641-49.22v43.438h16.171c15.235 0 23.282-7.421 23.282-21.718s-8.047-21.72-23.282-21.72h-16.171z"/></defs></svg>